<?xml version="1.0" encoding="UTF-8" standalone="no"?>
<svg
   width="335.78589"
   height="357.66376"
   version="1.1"
   viewBox="0 0 335.78589 357.66376"
   id="svg1"
   sodipodi:docname="young_totoro.svg"
   inkscape:version="1.4 (e7c3feb100, 2024-10-09)"
   xmlns:inkscape="http://www.inkscape.org/namespaces/inkscape"
   xmlns:sodipodi="http://sodipodi.sourceforge.net/DTD/sodipodi-0.dtd"
   xmlns="http://www.w3.org/2000/svg"
   xmlns:svg="http://www.w3.org/2000/svg">
  <defs
     id="defs1" />
  <sodipodi:namedview
     id="namedview1"
     pagecolor="#505050"
     bordercolor="#eeeeee"
     borderopacity="1"
     inkscape:showpageshadow="0"
     inkscape:pageopacity="0"
     inkscape:pagecheckerboard="0"
     inkscape:deskcolor="#505050"
     inkscape:zoom="1.808"
     inkscape:cx="165.37611"
     inkscape:cy="163.71681"
     inkscape:window-width="2048"
     inkscape:window-height="1115"
     inkscape:window-x="0"
     inkscape:window-y="0"
     inkscape:window-maximized="1"
     inkscape:current-layer="svg1" />
  <path
     d="m 113.89239,0.03840983 c 0.45459,-0.0567 0.91388,-0.0516 1.3775,0.0218 v 0.004 c 8.4186,1.33349997 11.975,18.64200017 14.329,25.23200017 7.1198,19.937 15.32,39.527 22.433,59.513 2.441,6.8589 4.3327,17.525 12.013,20.329 10.003,3.6522 11.476,-9.9093 12.884,-16.427 4.8238,-22.348 11.961,-45.539 21.56,-66.341 2.5663,-5.5618 11.911,-25.6690002 20.665,-17.9490002 5.6725,5.0018 8.829,17.0830002 12.368,23.8030002 13.297,25.248 22.579,53.407 29.472,80.975 5.2772,21.109 16.957,38.268 24.321,58.536 4.264,11.737 6.087,23.909 8.4854,36.099 8.8715,45.088 12.792,103.78 -25.454,136.96 -17.247,14.962 -39.036,14.335 -60.402,15.27 -37.479,1.641 -75.205,1.6109 -112.190004,-5.3651 -11.342,-2.1391 -23.445,-4.8855 -33.171,-11.361 -46.333,-30.85 -37.842,-107.28 -21.411,-152.09 6.4834,-17.683 17.95,-33.171 24.249,-50.732 4.7139,-13.14 5.2908,-28.296 8.3067,-41.951 5.5089,-24.942 13.701,-51.308 25.194,-74.147 2.431704,-4.8323 8.157304,-19.52700017 14.976004,-20.37700017 z M 113.37235,130.52841 c -3.1133,-0.1554 -6.3884,0.0175 -9.8192,0.55775 v -0.002 c -42.215004,6.6477 -49.002004,69.211 -7.804604,83.129 7.088304,2.3947 15.007004,3.0756 22.439004,2.0047 52.008,-7.4942 41.884,-83.358 -4.8153,-85.689 z m 111.41,2.7729 c -2.6114,0.002 -5.3025,0.23912 -8.0606,0.73639 -53.266,9.6038 -37.333,93.352 15.609,83.824 6.2604,-1.1266 12.315,-3.3388 17.56,-6.9828 35.431,-24.614 14.062,-77.605 -25.109,-77.577 z m -114.48,7.0463 c 38.508,-1.6075 46.51,60.265 5.9348,66.114 -43.256004,6.2358 -53.243004,-59.492 -9.7577,-65.755 1.3051,-0.18798 2.5807,-0.30741 3.8229,-0.35927 z m 116.89,2.7908 c 35.797,1.258 42.642,58.016 3.1897,65.114 -40.788,7.3383 -51.971,-57.708 -10.73,-64.594 2.6387,-0.44062 5.1541,-0.60391 7.5406,-0.52003 z m -117.36,14.035 c -0.76,0.0658 -1.5517,0.21816 -2.3719,0.46645 -14.612004,4.4242 -6.5723,26.23 6.8141,21.208 11.3,-4.2387 6.9578,-22.662 -4.4422,-21.675 z m 113.24,2.7114 c -1.3723,-0.0758 -2.8328,0.15425 -4.3489,0.76617 -12.058,4.867 -4.1598,25.214 8.6978,19.754 10.525,-4.4698 5.2576,-19.989 -4.3489,-20.52 z m -200.620004,166.12 c 6.4471,0.52455 12.312,6.3526 17.689,9.2138 5.8464,3.1109 13.039,4.1589 18.43,8.0904 3.9288,2.866 4.2301,7.6518 -0.91106,9.2277 -11.957,3.6654 -28.496,-0.41683 -40.932,-0.41683 -4.0739,0 -10.7689998,1.2271 -14.3249998,-1.1512 -9.365,-6.2632 11.2479998,-23.789 17.2509998,-24.841 0.94507,-0.16565 1.8777,-0.198 2.7987,-0.12306 z m 284.070004,4.589 c 9.0063,-0.2784 16.732,3.2528 23.374,9.8331 4.0877,4.0503 10.408,12.84 0.96663,15.286 -12.31,3.1876 -31.101,1.5835 -43.888,1.2703 -3.5869,-0.0879 -11.379,0.16336 -14.045,-2.5248 -3.681,-3.712 0.49529,-8.5639 3.3564,-11.026 6.815,-5.8642 17.338,-11.163 26.298,-12.483 1.3394,-0.19741 2.6514,-0.31552 3.938,-0.35529 z"
     fill="#e8c340"
     stroke-width="1.0163"
     id="path1"
     sodipodi:nodetypes="ccccccccccccccccccccscccccscccccccccccscccsscccccccccccccsccscscccccsccscc" />
</svg>
