<?xml version="1.0" encoding="UTF-8" standalone="no"?>
<svg
   width="69.1875"
   height="145.28125"
   version="1.1"
   viewBox="0 0 69.1875 145.28125"
   id="svg1"
   sodipodi:docname="one.svg"
   inkscape:version="1.4 (e7c3feb100, 2024-10-09)"
   xmlns:inkscape="http://www.inkscape.org/namespaces/inkscape"
   xmlns:sodipodi="http://sodipodi.sourceforge.net/DTD/sodipodi-0.dtd"
   xmlns="http://www.w3.org/2000/svg"
   xmlns:svg="http://www.w3.org/2000/svg">
  <defs
     id="defs1">
    <rect
       x="121.12832"
       y="170.90707"
       width="8.8495579"
       height="13.274336"
       id="rect2" />
  </defs>
  <sodipodi:namedview
     id="namedview1"
     pagecolor="#505050"
     bordercolor="#eeeeee"
     borderopacity="1"
     inkscape:showpageshadow="0"
     inkscape:pageopacity="0"
     inkscape:pagecheckerboard="0"
     inkscape:deskcolor="#505050"
     inkscape:zoom="1.2784491"
     inkscape:cx="-43.803075"
     inkscape:cy="160.35054"
     inkscape:window-width="2048"
     inkscape:window-height="1083"
     inkscape:window-x="0"
     inkscape:window-y="0"
     inkscape:window-maximized="1"
     inkscape:current-layer="svg1" />
  <text
     xml:space="preserve"
     style="text-align:start;writing-mode:lr-tb;direction:ltr;text-anchor:start;white-space:pre;inline-size:10.74;display:inline;fill:#e8c340"
     x="132.19028"
     y="172.01328"
     id="text1"
     transform="translate(-133.29919,-106.19125)"><tspan
       x="132.19028"
       y="172.01328"
       id="tspan4"><tspan
         style="font-size:53.3333px;font-family:Sans;-inkscape-font-specification:'Sans, Normal'"
         id="tspan3">1</tspan></tspan></text>
  <text
     xml:space="preserve"
     id="text2"
     style="text-align:start;writing-mode:lr-tb;direction:ltr;white-space:pre;shape-inside:url(#rect2);display:inline;fill:#e8c340"
     transform="translate(-133.29919,-106.19125)" />
  <path
     style="font-size:192px;font-family:Griffy;-inkscape-font-specification:'Griffy, Normal';fill:#e8c340"
     d="m 46.3125,0.09375 q -0.375,0.75 -0.1875,1.3125 0.375,0.5625 0.1875,1.3125 -1.3125,2.25 -1.3125,3.75 -0.375,1.875 -0.375,4.125 0,2.25 -0.1875,4.5 0,3.1875 -0.1875,4.3125 0,0.9375 0,1.875 0.1875,0.9375 0.375,1.875 0.1875,0.9375 0.1875,1.875 0,1.6875 -0.1875,3.375 -0.1875,1.5 -0.375,3 0,1.5 -0.1875,3.1875 0,1.6875 0,3.1875 -0.375,3.9375 -0.375,6.9375 0,3 0,5.4375 0,1.5 0,2.8125 0.1875,1.125 0.1875,2.4375 0,0.75 -0.1875,1.3125 0,0.375 0,1.3125 0,0.5625 0,1.125 0.1875,0.5625 0.1875,1.3125 -0.1875,1.5 -0.5625,3.1875 -0.375,1.5 -0.375,3.1875 0,1.5 0.1875,2.8125 0.1875,1.3125 -0.1875,2.8125 -0.375,1.5 -0.375,2.25 -0.1875,0.75 0,1.875 0.1875,0.9375 0.1875,2.0625 0,0.9375 0,2.0625 0.1875,0.9375 0.1875,1.875 0,2.0625 -0.375,3.9375 -0.1875,1.6875 0.75,3.5625 -0.1875,1.6875 -0.5625,1.875 -0.1875,0.1875 0.1875,0.1875 -0.1875,2.625 -0.75,5.625 -0.375,3 -0.5625,5.25 -0.375,2.0625 0,4.3125 0,2.25 0.1875,2.625 0.1875,0.375 0.1875,0.75 0.1875,1.3125 0.1875,2.4375 0,1.125 0.375,2.0625 0.9375,2.625 0.75,3.9375 0,1.125 0.375,2.0625 1.3125,3.75 2.0625,5.625 0.75,1.6875 1.875,3.375 1.3125,1.6875 1.875,2.25 0.75,0.5625 1.125,0.9375 0.375,0.375 0.9375,0.5625 0.75,0 1.125,0.375 1.5,1.125 2.0625,1.5 0.75,0.375 1.5,0.75 0.5625,0.75 0.9375,0.75 0.5625,-0.1875 0.75,0.5625 1.6875,0.1875 3.1875,0.9375 1.5,0.5625 2.8125,1.125 0.75,0.375 1.3125,0.75 0.75,0.1875 1.5,0.5625 0.5625,0.375 1.3125,0.375 0.9375,0.1875 1.125,1.125 -1.6875,1.3125 -2.625,1.125 -0.75,0 -1.6875,0.1875 -0.75,0.1875 -1.875,0.375 -1.125,0.375 -2.625,0.375 -1.125,0 -2.4375,-0.1875 -1.125,-0.1875 -2.25,0 -2.25,0 -4.3125,0.1875 -1.875,0.1875 -4.6875,0.1875 -3.75,0 -7.5,-0.1875 -3.5625,-0.1875 -7.125,0 -2.625,0 -5.0625,0.1875 -2.4375,0.375 -4.6875,0.1875 -1.5,0 -3.375,-0.375 -1.6875,-0.1875 -3.75,-0.1875 -0.375,-0.1875 -1.3125,0 -0.75,0.1875 -1.6875,0 -0.9375,-0.1875 -1.6875,-0.375 -0.5625,-0.1875 -1.125,-0.9375 0,-0.9375 0.5625,-1.5 0.75,-0.375 1.3125,-0.75 2.0625,-1.125 3.1875,-1.125 0.5625,-0.5625 1.3125,-0.75 0.75,-0.375 1.5,-0.75 2.25,-1.875 2.625,-2.0625 1.6875,-0.75 1.875,-0.9375 0.1875,-0.375 0.375,-0.375 0.9375,-0.5625 1.3125,-0.75 0.375,-0.1875 0.75,-0.375 1.5,-1.3125 1.875,-1.6875 0.375,-0.375 0.75,-0.9375 1.125,-1.6875 1.6875,-2.0625 0.5625,-0.5625 0.9375,-1.125 -0.1875,-0.375 0.375,-0.9375 0.5625,-0.5625 0.5625,-0.9375 0.1875,-0.5625 0,-0.9375 0,-0.5625 0,-1.125 0.75,-3.1875 0.5625,-4.6875 0,-1.5 0.375,-2.8125 0.5625,-1.875 0.375,-2.25 0,-0.375 0.1875,-1.125 0.375,-2.0625 0.1875,-2.625 0,-0.5625 0,-1.125 0,-0.9375 0.1875,-1.6875 0.1875,-0.75 0.1875,-1.6875 0.1875,-0.9375 0,-1.6875 0,-0.75 0,-1.6875 0,-1.6875 0.1875,-3.1875 0.1875,-1.6875 0.1875,-3.375 -0.1875,-0.9375 -0.5625,-1.6875 -0.1875,-0.75 -0.1875,-1.6875 -0.1875,-0.9375 -0.1875,-1.6875 0,-0.9375 0,-1.875 -0.1875,-0.9375 -0.375,-1.875 0,-0.9375 -0.1875,-1.875 -0.1875,-1.125 -0.5625,-2.25 -0.1875,-1.125 0,-3 0,-0.375 0,-0.75 0.1875,-0.375 0,-1.3125 L 30.375,76.21875 30,72.84375 q -0.75,-2.0625 -0.5625,-2.4375 0.375,-0.375 0.375,-0.75 0,-1.125 -0.375,-2.625 -0.1875,-1.5 -0.375,-3 -0.375,-2.625 -0.5625,-5.0625 0,-2.625 -0.375,-4.6875 -0.1875,-1.5 0,-1.6875 0.1875,-0.1875 0,-0.5625 l -0.375,-3.1875 q -0.1875,-0.9375 -0.375,-1.875 -0.1875,-0.9375 0,-2.4375 0,-1.6875 -0.1875,-1.6875 0,0 -0.1875,-0.9375 v -6.9375 -2.25 q 0.375,-2.4375 0,-5.25 -0.1875,-3 -0.1875,-5.625 -1.5,0.9375 -1.6875,1.125 0,0.1875 -0.1875,0.375 -1.875,1.875 -2.625,3 -1.5,1.3125 -3.375,2.4375 -1.875,0.9375 -3.9375,1.5 -1.125,0.375 -2.25,0.75 -1.125,0.1875 -2.25,0.375 -1.875,0.1875 -2.625,0.5625 -0.75,0.375 -1.6875,0.375 -0.5625,0 -1.3125,0.1875 -0.5625,0 -0.9375,-0.375 -1.6875,0 -1.875,-0.5625 -0.1875,-0.75 -0.5625,-1.3125 -0.75,-1.125 -0.9375,-1.875 -0.375,-0.375 -0.1875,-1.3125 0,-0.9375 -0.375,-1.6875 0.1875,-0.5625 0.1875,-1.5 0,-0.9375 0.5625,-1.3125 3.1875,0.5625 5.625,0.375 1.5,0 3,-0.375 1.6875,-0.5625 3.1875,-0.9375 2.4375,-0.75 3,-1.125 0.5625,-0.375 1.3125,-0.75 1.6875,-1.125 2.25,-1.6875 0.5625,-0.75 1.3125,-1.6875 0.375,-0.1875 0.5625,-0.75 0.375,-0.75 0.5625,-1.125 0.5625,-0.5625 0.9375,-1.125 0.375,-0.5625 0.9375,-0.9375 0.375,-1.6875 1.125,-3.1875 0.9375,-1.5 1.3125,-3.375 0.375,-1.125 0.1875,-2.0625 -0.1875,-0.9375 0.375,-1.875 1.3125,-0.1875 2.625,0 1.5,0.1875 3.1875,0 0.75,0 1.5,0 0.75,-0.1875 1.5,-0.1875 1.125,-0.5625 2.8125,-0.75 1.6875,0.375 3.1875,0 1.6875,-0.5625 2.625,-0.9375 0.375,-0.1875 0.9375,0 0.5625,0 1.5,0 z"
     id="text3"
     aria-label="1" />
</svg>
