<?xml version="1.0" encoding="UTF-8"?>
<svg width="400" height="400" version="1.1" viewBox="0 0 400 400" xmlns="http://www.w3.org/2000/svg">
 <path d="m77.11 352.27c-7.1338-2.9708-12.142-8.8063-20-10.398-10.884-2.2052-21.954 7.8844-27.424 16.398-2.8583 4.4484-4.7155 10.908-1.254 15.584 4.8042 6.4904 12.56 4.8996 19.478 4.8173 12.603-0.14993 24.943 3.3544 37.6 1.4898 6.6015-0.97249 12.984-3.5638 13.6-11.091 6.0291 3.4312 13.281 5.0857 20 6.5698 12.934 2.8567 26.035 4.6241 39.2 5.8982 25.776 2.4944 51.75 2.2798 77.6 1.1478 15.083-0.66048 30.064-0.4771 44.8-4.3695 6.3663-1.6816 11.573-5.3651 17.6-7.6463-2.4865 8.4915 7.2311 11.934 13.6 12.686 13.025 1.5376 27.325 1.4664 40.4 0.55 5.5261-0.3873 12.653-0.66013 17.194-4.2475 10.16-8.0254-1.7023-21.536-8.7941-26.573-14.33-10.177-28.998-7.0617-44-0.81575 26.513-34.492 22.616-83.822 15.37-124-2.3819-13.206-4.335-26.912-8.8466-39.6-5.7769-16.246-14.635-31.115-20.753-47.2-5.0366-13.24-7.721-27.307-12.032-40.8-4.2984-13.453-9.1316-26.688-14.882-39.6-3.0619-6.8755-6.9329-13.416-9.7355-20.4-3.0427-7.5821-6.7686-19.876-15.92-21.884-10.032-2.2016-16.759 7.2653-20.888 15.084-10.076 19.084-16.331 39.706-22.082 60.4-1.9085 6.8676-3.1139 13.899-4.8821 20.8-0.43883 1.7126-1.2274 6.2179-3.7543 5.7815-2.3784-0.41079-4.0744-3.4168-4.9981-5.3815-2.7973-5.9497-4.3603-12.624-6.617-18.8-5.5837-15.28-11.71-30.362-17.409-45.6-2.5156-6.7268-4.2432-13.762-6.9741-20.4-3.2646-7.9354-9.1278-16.508-18.796-15.08-7.9486 1.1745-12.549 13.177-15.699 19.48-10.299 20.611-17.51 41.889-23.785 64-5.2213 18.396-5.2214 38.467-11.738 56.4-6.1348 16.884-16.733 31.736-23.399 48.4-4.4723 11.18-7.581 23.01-9.9395 34.8-7.65 38.242-7.5662 81.902 18.16 113.6m169.6-323.2c6.9601 5.0095 9.5676 17.738 13.299 25.2 8.3693 16.739 15.139 34.135 20.691 52 3.2846 10.569 5.4586 21.507 8.9435 32 5.9784 18.001 16.047 34.178 22.39 52 4.197 11.792 6.2239 24.138 8.5213 36.4 5.4358 29.012 9.0997 59.827 1.4618 88.8-4.9178 18.654-15.559 37.977-32.906 47.655-15.135 8.4446-32.564 7.2413-49.2 8.3805-31.883 2.1834-64.296 1.4457-96-2.7231-14.644-1.9255-30.99-4.0365-44-11.484-35.186-20.14-37.75-69.543-32.164-105.03 1.1199-7.1146 2.4678-14.211 4.2145-21.2 2.3457-9.3852 5.1524-18.75 9.0938-27.6 6.7053-15.056 15.955-28.855 21.634-44.4 5.4045-14.792 5.484-30.825 9.2719-46 5.7009-22.839 12.096-45.636 22.651-66.8 2.4749-4.9626 4.6504-10.058 7.5448-14.8 0.87758-1.4377 2.2773-4.1251 4.1552-4.3759 2.3948-0.31982 4.0946 3.8632 4.854 5.5759 2.9628 6.6819 4.8094 13.916 7.2679 20.8 7.3672 20.63 15.652 40.899 22.815 61.6 2.6879 7.7686 7.9101 16.536 17.062 17.164 13.377 0.91695 14.681-16.325 16.95-25.564 4.5507-18.532 9.7771-36.812 17.282-54.4 3.497-8.1955 7.1017-17.444 14.169-23.2m-106.4 122.57c-8.5937 1.1317-16.608 2.9998-23.6 8.4978-19.467 15.309-22.582 47.879-4.7642 65.697 9.6133 9.6132 24.397 13.143 37.564 11.521 8.9694-1.105 17.875-4.6876 24.332-11.153 25.361-25.395 4.4716-79.567-33.532-74.562m114.4 2.8c-12.43 1.6321-24.216 5.2342-31.702 16.23-19.402 28.501 2.4697 73.111 38.502 68.686 18.213-2.2368 34.806-15.137 37.825-33.886 4.0181-24.956-17.388-54.606-44.625-51.03m-115.2 7.1448c9.2994-1.1421 18.894 1.611 25.584 8.3012 13.795 13.795 14.107 40.988-2.7842 52.486-4.5372 3.0884-9.7849 4.7189-15.2 5.384-10.108 1.2414-20.552-1.9551-27.564-9.4858-13.312-14.296-12.36-40.055 4.3639-51.3 4.6043-3.0959 10.135-4.714 15.6-5.3852m114 2.8c9.3666-1.1503 19.202 1.5588 25.964 8.3213 12.341 12.341 13.291 35.373 0.76789 47.896-5.4081 5.4081-12.85 8.2345-20.332 9.1534-29.609 3.6363-45.663-37.197-25.184-57.049 5.0111-4.858 11.952-7.4825 18.784-8.3216m-112.8 14.071c-13.624 2.4556-10.061 24.398 3.2 22.028 13.554-2.4218 10.34-24.469-3.2-22.028m111.6 2.8216c-13.023 2.8254-7.3386 23.465 5.2 20.785 13.214-2.8235 7.3179-23.501-5.2-20.785m-165.6 186.99v0.4c-10.27 1.9067-20.52-0.33413-30.8-0.78425-5.9572-0.26087-12.581 0.96963-18.4-0.41575 2.0225-5.4814 10.23-15.202 16.8-14.752 4.4713 0.30621 9.0778 4.6961 12.8 6.9102 6.1282 3.6453 13.043 5.9118 19.6 8.6417m275.2 3.2c-17.128 2.2119-35.214 2.572-52.4 0.4 1.8587-4.1357 6.9309-6.8849 10.8-8.9019 11.56-6.0261 24.212-8.78 35.2 0.025 2.7177 2.1777 5.5966 4.9758 6.4 8.4769z" fill="#030303"/>
</svg>
