<?xml version="1.0" encoding="UTF-8"?>
<svg width="400" height="400" version="1.1" viewBox="0 0 400 400" xmlns="http://www.w3.org/2000/svg">
 <path d="m138.96 17.963-3.5392 4.3352c-1.2263 1.5403-2.3528 3.1458-3.332 4.8047-2.856 4.8386-5.0352 10.048-6.0215 12.008-11.788 23.426-20.075 50.178-25.656 75.447-3.1705 14.355-3.8074 29.276-8.1113 41.273-5.9259 16.521-17.385 32.009-24.236 50.695-8.4606 23.073-14.833 53.915-13.16 83.506 1.3099 23.169 7.8348 45.792 22.58 62.568-0.90863-0.35217-1.8554-0.69025-2.6211-1.0977-4.0932-2.1781-10.357-9.0746-19.848-9.8477-6.62e-4 -5e-5 -0.0013 6e-5 -2e-3 0-1.3516-0.10982-2.7714-0.0622-4.207 0.18946-3.5525 0.62256-5.865 2.2765-8.8281 4.4043-2.9631 2.1278-6.0552 4.8211-8.7461 7.832-2.6909 3.0109-5.0598 6.2333-6.1699 10.209-0.55506 1.9878-0.76566 4.2872-0.07031 6.6289 0.69522 2.3413 2.3721 4.4836 4.4316 5.8613 3.485 2.3308 7.0337 2.4153 10.08 2.4043s5.857-0.3164 7.3359-0.31641c11.22 0 28.125 4.5991 42.561 0.17383 4.1069-1.2589 7.6003-5.0452 7.7812-9.2031 0.0085-0.19544-0.05434-0.36651-0.05664-0.5586 9.0279 4.2523 18.767 6.3855 27.711 8.0723 37.659 7.103 75.818 7.1033 113.46 5.4551 18.999-0.83141 40.042-0.36358 57.965-12.318-0.15066 0.84257-0.26964 1.7107-0.19336 2.6621 0.18256 2.277 1.3089 4.6811 3.0254 6.4121 3.3004 3.3279 6.8671 3.5205 10.047 3.8516s6.2414 0.27805 7.8066 0.31641h2e-3c12.456 0.30509 31.339 2.1978 45.416-1.4473h2e-3c3.2884-0.85194 6.3044-2.6573 7.8926-5.5703 1.5882-2.913 1.3448-6.0762 0.62305-8.4609-1.4436-4.7696-4.5104-8.152-6.9648-10.584-7.4666-7.3972-16.902-11.766-27.457-11.439l-5.9336 0.1836 0.0527 0.53711c-5.39 0.96112-10.807 2.9351-15.867 5.5605 11.7-15.729 17.534-34.577 19.664-53.932 2.7908-25.357-0.51967-51.787-5.0137-74.627-2.3661-12.026-4.2033-24.506-8.7148-36.924-7.6643-21.095-19.171-38.062-24.152-57.986-6.9618-27.843-16.353-56.405-29.947-82.217-1.4471-2.7478-3.1613-7.4469-5.2012-12.162-2.0399-4.7152-4.2905-9.5879-8.4082-13.219-3.4541-3.0461-8.6982-3.7155-12.357-2.2051-3.6592 1.5105-6.1507 4.1546-8.3359 6.9258-4.3706 5.5424-7.4045 12.271-8.6953 15.068-9.8183 21.277-17.05 44.818-21.945 67.496-0.78753 3.6455-1.5886 8.2729-2.7988 10.801-0.60511 1.2639-1.1852 1.7584-1.291 1.8164-0.10577 0.058-0.0365 0.27964-1.4551-0.23828-1.8456-0.67382-3.3561-2.4638-4.8066-5.6973-1.4506-3.2335-2.5034-7.4158-3.877-11.275-7.1808-20.176-15.381-39.768-22.434-59.518-0.95673-2.6784-2.5289-8.9909-5.002-14.873-0.65889-1.5672-1.4052-3.1149-2.2539-4.6172l-4.5293-5.6543c-3.5623-3.2351-3.5353-3.1774-6.9102-3.7129-0.98431-0.15584-5.9909-1.1433-9.289 2.2019zm7.6698 8.8371c0.3519 0.08577 0.95321 0.37588 1.8965 1.5371 1.0252 1.262 2.1708 3.3403 3.1699 5.7168 1.9983 4.753 3.382 10.391 4.7793 14.303 7.1866 20.124 15.384 39.712 22.43 59.508 1.0674 2.9993 2.1814 7.5804 4.207 12.096 2.0256 4.5153 5.302 9.4597 11.137 11.59 3.583 1.3082 7.5875 1.2042 10.615-0.45704 3.0278-1.6612 4.7792-4.279 5.9688-6.7637 2.379-4.9692 3.0182-10.382 3.6387-13.254 4.7526-22.018 11.794-44.859 21.174-65.186 1.2754-2.7642 4.1982-8.8702 7.3301-12.842 1.5659-1.9858 3.2125-3.271 3.8476-3.5332 0.63519-0.26219-0.15729-0.54828 0.76563 0.26562 1.5548 1.371 3.7174 5.041 5.5586 9.2969s3.4745 8.9555 5.5664 12.928c13 24.684 22.174 52.441 28.998 79.734 5.5735 22.293 17.427 39.643 24.49 59.084 4.0165 11.056 5.8252 22.921 8.2559 35.275 4.3775 22.248 7.4617 47.708 4.8691 71.264-2.5926 23.556-10.685 44.958-28.512 60.424-15.439 13.393-35.365 12.969-57.004 13.916-37.313 1.6337-74.605 1.5755-110.92-5.2734-11.198-2.112-22.562-4.8269-31.121-10.525-21.274-14.165-30.216-38.959-31.773-66.498-1.557-27.539 4.5296-57.316 12.5-79.053 6.1154-16.679 17.59-32.168 24.262-50.77 5.1239-14.283 5.6406-29.674 8.502-42.629 5.4365-24.614 13.535-50.594 24.732-72.846 1.4454-2.8723 3.3447-7.4261 5.6641-11.355 1.1597-1.9647 2.411-3.7107 3.4512-4.7773 0.99616-1.0215 1.5948-1.1765 1.5176-1.1758zm-92.518 325.94c3.4021 0.2768 8.8688 5.0359 15.529 8.5801 6.7677 3.6011 13.263 4.7926 17.203 7.3691-9.6036 2.2782-24.928-0.93164-38.006-0.93164-2.595 0-5.1683 0.30843-7.377 0.31641-2.1549 8e-3 -3.6233-0.44885-3.7637-0.51563 0.0013-0.0516-0.02074 0.0437 0.06836-0.27539 0.30849-1.1048 1.7118-3.5041 3.7539-5.7891s4.6439-4.5611 6.9414-6.2109 4.8127-2.5809 4.2617-2.4844c0.4538-0.0796 0.89884-0.0985 1.3887-0.0586zm284.69 4.6055c7.4575-0.23052 13.474 2.4612 19.291 8.2246 1.5907 1.5762 3.6083 4.4543 4.0644 5.7598-0.17233 0.0663-0.19954 0.099-0.57812 0.19726-10.543 2.7301-29.241 1.417-42.359 1.0957-2.0216-0.0495-4.6482-0.0224-6.9277-0.25976-1.1325-0.11791-2.1069-0.43057-2.7285-0.63672 0.48407-0.80857 1.4911-2.0535 2.457-2.8848 5.9256-5.0989 16.023-10.098 23.482-11.197 1.1378-0.1677 2.2353-0.26595 3.2988-0.29883zm-83.621-176.26v1.7e-4c9.6065 0.531 14.874 16.05 4.3489 20.52-12.858 5.46-20.756-14.887-8.6978-19.754 1.5161-0.61192 2.9766-0.84197 4.3489-0.76617zm-113.24-2.7114v-5.5e-4c11.4-0.987 15.742 17.436 4.4422 21.675-13.386 5.022-21.426-16.784-6.8141-21.208 0.8202-0.24829 1.6119-0.40065 2.3719-0.46645zm117.36-14.035 3e-4 -3e-5c-2.3865-0.0839-4.9019 0.0794-7.5406 0.52003-41.241 6.886-30.058 71.932 10.73 64.594 39.452-7.098 32.607-63.856-3.1897-65.114zm-116.89-2.7908v-2.7e-4c-1.2422 0.0519-2.5178 0.17129-3.8229 0.35927-43.485 6.263-33.498 71.991 9.7577 65.755 40.575-5.849 32.573-67.722-5.9348-66.114zm114.48-7.0463-6e-4 5.9e-4c39.171-0.028 60.54 52.963 25.109 77.577-5.245 3.644-11.3 5.8562-17.56 6.9828-52.942 9.528-68.875-74.22-15.609-83.824 2.7581-0.49727 5.4492-0.73439 8.0606-0.73639zm-111.41-2.7729-1e-4 4.5e-4c46.699 2.331 56.823 78.195 4.8153 85.689-7.432 1.0709-15.351 0.39-22.439-2.0047-41.197-13.918-34.41-76.481 7.8046-83.129v2e-3c3.4308-0.54025 6.7059-0.71315 9.8192-0.55775z"/>
</svg>
